<svg width="64" height="64" viewBox="0 0 64 64" xmlns="http://www.w3.org/2000/svg">
  <!-- Background -->
  <rect width="64" height="64" rx="12" fill="#0a0a0a"/>
  
  <!-- Trophy Cup Body -->
  <path d="M20 14h24v4h-24z" fill="#fbbf24"/>
  <path d="M18 18h28v6h-28z" fill="#fbbf24"/>
  <path d="M20 24h24v6h-24z" fill="#f59e0b"/>
  <path d="M22 30h20v4h-20z" fill="#f59e0b"/>
  
  <!-- Left Handle -->
  <path d="M12 18h6v4h-4v8h-2z" fill="#fbbf24"/>
  <path d="M12 26h4v4h-4z" fill="#f59e0b"/>
  
  <!-- Right Handle -->
  <path d="M46 18h6v12h-2v-8h-4z" fill="#fbbf24"/>
  <path d="M48 26h4v4h-4z" fill="#f59e0b"/>
  
  <!-- Stem -->
  <path d="M28 34h8v8h-8z" fill="#d97706"/>
  
  <!-- Base -->
  <path d="M24 42h16v4h-16z" fill="#fbbf24"/>
  <path d="M20 46h24v4h-24z" fill="#f59e0b"/>
  
  <!-- Star Highlight -->
  <path d="M32 20l1.5 3 3.5.5-2.5 2.5.5 3.5-3-1.5-3 1.5.5-3.5-2.5-2.5 3.5-.5z" fill="#fef3c7"/>
  
  <!-- Shine Effect -->
  <path d="M22 18h2v8h-2z" fill="#fef3c7" opacity="0.6"/>
</svg>
